HIERARCHY
ROOT Hips
{
	OFFSET -14.64140 90.27770 -84.91600
	CHANNELS 6 Xposition Yposition Zposition Zrotation Xrotation Yrotation
	JOINT Spine
	{
		OFFSET 0.00000 13.20850 -1.60436
		CHANNELS 3 Zrotation Xrotation Yrotation
		JOINT Spine1
		{
			OFFSET 0.00000 8.61716 0.00000
			CHANNELS 3 Zrotation Xrotation Yrotation
			JOINT Spine2
			{
				OFFSET 0.00000 8.61717 0.00000
				CHANNELS 3 Zrotation Xrotation Yrotation
				JOINT Spine3
				{
					OFFSET 0.00000 8.61717 0.00000
					CHANNELS 3 Zrotation Xrotation Yrotation
					JOINT Neck
					{
						OFFSET 0.00000 11.07920 1.10792
						CHANNELS 3 Zrotation Xrotation Yrotation
						JOINT Neck1
						{
							OFFSET 0.00000 7.08032 0.00000
							CHANNELS 3 Zrotation Xrotation Yrotation
							JOINT Head
							{
								OFFSET 0.00000 7.08031 0.00000
								CHANNELS 3 Zrotation Xrotation Yrotation
								End site
								{
									OFFSET 0.00000 0.00000 0.00000
								}
							}
						}
					}
					JOINT RightShoulder
					{
						OFFSET -0.01000 7.91373 5.19711
						CHANNELS 3 Zrotation Xrotation Yrotation
						JOINT RightArm
						{
							OFFSET -18.41580 0.00000 0.00000
							CHANNELS 3 Zrotation Xrotation Yrotation
							JOINT RightForeArm
							{
								OFFSET -29.11090 0.00000 0.00000
								CHANNELS 3 Zrotation Xrotation Yrotation
								JOINT RightHand
								{
									OFFSET -24.65040 0.00000 0.00000
									CHANNELS 3 Zrotation Xrotation Yrotation
									JOINT RightHandThumb1
									{
										OFFSET -5.35114 -0.85590 3.97906
										CHANNELS 3 Zrotation Xrotation Yrotation
										JOINT RightHandThumb2
										{
											OFFSET -4.52789 0.00000 0.00000
											CHANNELS 3 Zrotation Xrotation Yrotation
											JOINT RightHandThumb3
											{
												OFFSET -2.46976 0.00000 0.00000
												CHANNELS 3 Zrotation Xrotation Yrotation
												End site
												{
													OFFSET 0.00000 0.00000 0.00000
												}
											}
										}
									}
									JOINT RightHandIndex1
									{
										OFFSET -14.26970 0.00000 2.88139
										CHANNELS 3 Zrotation Xrotation Yrotation
										JOINT RightHandIndex2
										{
											OFFSET -5.48836 0.00000 0.00000
											CHANNELS 3 Zrotation Xrotation Yrotation
											JOINT RightHandIndex3
											{
												OFFSET -3.01859 0.00000 0.00000
												CHANNELS 3 Zrotation Xrotation Yrotation
												End site
												{
													OFFSET 0.00000 0.00000 0.00000
												}
											}
										}
									}
									JOINT RightHandMiddle1
									{
										OFFSET -14.26970 0.00000 -0.09147
										CHANNELS 3 Zrotation Xrotation Yrotation
										JOINT RightHandMiddle2
										{
											OFFSET -6.17441 0.00000 0.00000
											CHANNELS 3 Zrotation Xrotation Yrotation
											JOINT RightHandMiddle3
											{
												OFFSET -3.56743 0.00000 0.00000
												CHANNELS 3 Zrotation Xrotation Yrotation
												End site
												{
													OFFSET 0.00000 0.00000 0.00000
												}
											}
										}
									}
									JOINT RightHandRing1
									{
										OFFSET -12.69180 0.00000 -3.06433
										CHANNELS 3 Zrotation Xrotation Yrotation
										JOINT RightHandRing2
										{
											OFFSET -5.62556 0.00000 0.00000
											CHANNELS 3 Zrotation Xrotation Yrotation
											JOINT RightHandRing3
											{
												OFFSET -3.56744 0.00000 0.00000
												CHANNELS 3 Zrotation Xrotation Yrotation
												End site
												{
													OFFSET 0.00000 0.00000 0.00000
												}
											}
										}
									}
									JOINT RightHandPinky1
									{
										OFFSET -11.11390 0.00000 -6.03719
										CHANNELS 3 Zrotation Xrotation Yrotation
										JOINT RightHandPinky2
										{
											OFFSET -4.52789 0.00000 0.00000
											CHANNELS 3 Zrotation Xrotation Yrotation
											JOINT RightHandPinky3
											{
												OFFSET -2.46976 0.00000 0.00000
												CHANNELS 3 Zrotation Xrotation Yrotation
												End site
												{
													OFFSET 0.00000 0.00000 0.00000
												}
											}
										}
									}
								}
							}
						}
					}
					JOINT LeftShoulder
					{
						OFFSET 0.01000 7.91373 5.19711
						CHANNELS 3 Zrotation Xrotation Yrotation
						JOINT LeftArm
						{
							OFFSET 18.41580 0.00000 0.00000
							CHANNELS 3 Zrotation Xrotation Yrotation
							JOINT LeftForeArm
							{
								OFFSET 29.11090 0.00000 0.00000
								CHANNELS 3 Zrotation Xrotation Yrotation
								JOINT LeftHand
								{
									OFFSET 24.65040 0.00000 0.00000
									CHANNELS 3 Zrotation Xrotation Yrotation
									JOINT LeftHandThumb1
									{
										OFFSET 5.35114 -0.85590 3.97906
										CHANNELS 3 Zrotation Xrotation Yrotation
										JOINT LeftHandThumb2
										{
											OFFSET 4.52789 0.00000 0.00000
											CHANNELS 3 Zrotation Xrotation Yrotation
											JOINT LeftHandThumb3
											{
												OFFSET 2.46977 0.00000 0.00000
												CHANNELS 3 Zrotation Xrotation Yrotation
												End site
												{
													OFFSET 0.00000 0.00000 0.00000
												}
											}
										}
									}
									JOINT LeftHandIndex1
									{
										OFFSET 14.26970 0.00000 2.88139
										CHANNELS 3 Zrotation Xrotation Yrotation
										JOINT LeftHandIndex2
										{
											OFFSET 5.48836 0.00000 0.00000
											CHANNELS 3 Zrotation Xrotation Yrotation
											JOINT LeftHandIndex3
											{
												OFFSET 3.01859 0.00000 0.00000
												CHANNELS 3 Zrotation Xrotation Yrotation
												End site
												{
													OFFSET 0.00000 0.00000 0.00000
												}
											}
										}
									}
									JOINT LeftHandMiddle1
									{
										OFFSET 14.26970 0.00000 -0.09147
										CHANNELS 3 Zrotation Xrotation Yrotation
										JOINT LeftHandMiddle2
										{
											OFFSET 6.17440 0.00000 0.00000
											CHANNELS 3 Zrotation Xrotation Yrotation
											JOINT LeftHandMiddle3
											{
												OFFSET 3.56744 0.00000 0.00000
												CHANNELS 3 Zrotation Xrotation Yrotation
												End site
												{
													OFFSET 0.00000 0.00000 0.00000
												}
											}
										}
									}
									JOINT LeftHandRing1
									{
										OFFSET 12.69180 0.00000 -3.06433
										CHANNELS 3 Zrotation Xrotation Yrotation
										JOINT LeftHandRing2
										{
											OFFSET 5.62556 0.00000 0.00000
											CHANNELS 3 Zrotation Xrotation Yrotation
											JOINT LeftHandRing3
											{
												OFFSET 3.56744 0.00000 0.00000
												CHANNELS 3 Zrotation Xrotation Yrotation
												End site
												{
													OFFSET 0.00000 0.00000 0.00000
												}
											}
										}
									}
									JOINT LeftHandPinky1
									{
										OFFSET 11.11390 0.00000 -6.03719
										CHANNELS 3 Zrotation Xrotation Yrotation
										JOINT LeftHandPinky2
										{
											OFFSET 4.52789 0.00000 0.00000
											CHANNELS 3 Zrotation Xrotation Yrotation
											JOINT LeftHandPinky3
											{
												OFFSET 2.46976 0.00000 0.00000
												CHANNELS 3 Zrotation Xrotation Yrotation
												End site
												{
													OFFSET 0.00000 0.00000 0.00000
												}
											}
										}
									}
								}
							}
						}
					}
					JOINT pCube4
					{
						OFFSET 0.00000 10.91090 1.10792
						CHANNELS 3 Zrotation Xrotation Yrotation
						End site
						{
							OFFSET 0.00000 0.00000 0.00000
						}
					}
				}
			}
		}
	}
	JOINT RightUpLeg
	{
		OFFSET -9.98441 0.00000 0.00000
		CHANNELS 3 Zrotation Xrotation Yrotation
		JOINT RightLeg
		{
			OFFSET 0.00000 -42.11790 0.00000
			CHANNELS 3 Zrotation Xrotation Yrotation
			JOINT RightFoot
			{
				OFFSET 0.00000 -45.00020 -0.00001
				CHANNELS 3 Zrotation Xrotation Yrotation
				JOINT RightForeFoot
				{
					OFFSET 0.00000 -3.74820 0.00000
					CHANNELS 3 Zrotation Xrotation Yrotation
					JOINT RightToeBase
					{
						OFFSET 0.00000 0.06325 14.43120
						CHANNELS 3 Zrotation Xrotation Yrotation
						End site
						{
							OFFSET 0.00000 0.00000 0.00000
						}
					}
				}
			}
		}
	}
	JOINT LeftUpLeg
	{
		OFFSET 9.98441 0.00000 0.00000
		CHANNELS 3 Zrotation Xrotation Yrotation
		JOINT LeftLeg
		{
			OFFSET 0.00000 -42.11800 0.00000
			CHANNELS 3 Zrotation Xrotation Yrotation
			JOINT LeftFoot
			{
				OFFSET 0.00000 -45.00070 0.00000
				CHANNELS 3 Zrotation Xrotation Yrotation
				JOINT LeftForeFoot
				{
					OFFSET 0.00000 -3.74824 0.00000
					CHANNELS 3 Zrotation Xrotation Yrotation
					JOINT LeftToeBase
					{
						OFFSET 0.00000 0.06325 14.43110
						CHANNELS 3 Zrotation Xrotation Yrotation
						End site
						{
							OFFSET 0.00000 0.00000 0.00000
						}
					}
				}
			}
		}
	}
}
MOTION
Frames: 4
Frame Time: 0.050000
-0.036446202689837386 0.04012308139445359 0.03055859021696294 0.0076344134309662415 -0.0027803174475239238 -0.011677378726721645 5.186687268785583 3.384670073142401 -2.296434942849911 -0.8265067574328632 3.47215928389452 0.43733920844592017 -0.5439024618511485 -0.8086594229829416 1.0445109951843485 -0.7814055310252772 -0.49557527755011954 -0.2230311950584385 -0.28985144176908384 11.225811921097593 -0.5388503380568943 0.036122975655345765 -1.0554068321874888 -1.2984472362129034 0.24622406211184517 -17.717611733174394 -0.13290449972620288 -10.960720656702179 3.9733492134365163 -17.35591462441915 81.8464085675629 -4.524203170220042 13.02196789609273 31.27948511708073 1.7418139697677377 95.17022318855233 9.25285969350217 -0.4406476015233466 -3.9938740564512827 4.484625705092543 -0.10750703423501529 -1.578907065885352 0.021869500052336403 -0.03643101258400964 -56.26629729612572 0.003429959931394823 0.030191542838508008 -56.27526377849974 -38.756452101505545 0.01346212332382529 -0.04004037626935324 -0.016131808532842733 0.04013316579870308 -0.02290961738612123 0.034958161567532745 0.036421179022487926 -0.008680218514208858 -36.660408809155605 0.04016728425388699 0.0384516916885694 0.007040487018010227 -0.013023904494480685 -0.028332370863996256 -0.01979372562773931 0.0004218475641347299 0.03299555683375543 -19.71475105955668 -0.04063625037013922 -0.027200259402202935 -0.019188154757477874 -0.038731640593177276 0.03582105279564763 -0.007866487282435723 0.005277889678497158 -0.005369920928944745 24.075600469846968 0.005071292143118353 -0.016353472941108105 28.85703453637594 0.037486874839784856 -0.023401883195376266 28.841921496343264 -0.026266618886119388 -0.028122229961185494 10.10521247211287 2.419109610190395 14.22207736175082 -77.20229536759425 18.37399907839397 -13.068646682168485 -9.341863518481183 12.248926304965941 -56.31925624567537 -19.02195044461652 -2.4129597157348677 3.2293093711030463 -0.43529749498010195 0.089519109419119 -8.144723472861255 0.04427028841562156 -0.005662886206386912 44.52366267093627 0.04304235035765507 0.03610030191814292 44.57067879996772 12.499618939996164 -0.0033933175794350857 0.00830330447637516 0.012538164424324812 -0.03769409518192884 0.014754879307035488 -0.038912950937849126 0.03307136021634971 -0.04743795325059456 11.087239661696485 0.011131189886231909 0.0035215095826364217 0.01301627618235999 -0.020292100195330644 0.004698148246220548 -0.008472920920990439 -0.022609409828794873 -0.0321464612449746 4.768744529234398 0.04608668389847163 0.0373485734701079 0.014976994040311685 0.015047955752508765 -0.007527470490025293 0.03674586080070561 0.017411598111070424 -0.004558813975375602 -5.648254790318475 -0.031376079877820574 -0.025059317899633882 -6.689223267093317 -0.003651825933411549 -0.04619667975780239 -6.733666963994002 -0.0330944283543536 0.04678696815896064 0.02113857228210063 -0.007343272754137337 -0.0010866531183804041 8.070871527669826 3.4692283815821714 -19.23078980592869 0.006821223224328811 10.370744547307151 0.004507074848355736 -5.591659829651782 -15.656285541680406 3.1879297188574833 0.022380932200135564 0.025968485389147946 -0.01952543389907848 -0.00022678058364604284 4.6920918924233055 -0.0037129113662881124 12.464333235159026 -8.228854344289015 6.916722551867476 0.012102183985439519 46.41844220482733 0.005579027127057642 -4.3448570624150875 -14.734218329200278 -3.874131453991858 0.028187030131749228 -0.007951062722674576 0.010102813991945028 -0.011136135645669235 -10.732805115927594 -0.0447923676484218 
0.0038761155409237427 -0.039658858541321965 0.03952278881839245 -0.010275508056600713 0.04606258552688274 0.04802637122216967 5.285292762095248 3.283157968164343 -2.3002533783654813 -0.8527260863266205 3.4258936299860268 0.4094747049142567 -0.6266346768089819 -0.8602029281561028 1.2910909449194268 -0.7725047215883087 -0.5302546325759696 -0.16793721849388454 -0.13574221790787525 11.214449617506006 -0.8199438408670073 0.019302006522182582 -1.090231952143774 -2.0310821339712892 0.3167343499935694 -17.828929322621978 -0.18523454838686754 -10.951234429091926 3.9277847147708993 -17.400448052005284 81.26599438192731 -4.065829707299038 13.238009507866519 30.70751816455273 2.279051431715836 94.90744682582945 9.623156144491022 -0.43049082636997593 -3.973551359934024 4.480726630351778 -0.08985618882823736 -1.5891033511019836 -0.00892021373353028 -0.03884224919654346 -56.1954751256188 -0.04989187908471803 0.039059076053947844 -56.26404848742926 -38.75515234200215 0.02698076552326796 0.04691003018755551 -0.015056211508784917 -0.00342643126607719 -0.009502856666804437 0.007715951791278832 -0.02864078742201068 -0.03999696029978786 -36.69029094352325 0.01054352698830753 -0.026533956012410733 -0.005701241205204471 0.02147116487881505 -0.020081041385503155 0.008432978564675403 -0.005870392756386922 -0.03691500293536191 -19.73678211586619 0.027169713168391327 -0.007773408611436254 0.003887826877562149 0.008842175874809547 0.026338498701249453 0.02292355937876429 0.03408245270906096 0.004436012122843717 24.058935086853197 -0.026586045620793187 -0.011785597664552255 28.898277712350694 -0.013961961386153025 -0.0484315146076349 28.90912336103048 -0.024168331922056127 -0.014048987260916928 9.739927368188921 2.395023800793388 14.343495856141688 -77.3104399154137 18.41660308046357 -11.668080674633387 -7.161209476202297 11.814885357439886 -53.168393150839975 -19.29172861065808 -1.9848722160289458 3.0579076647336123 -0.4349362008513865 0.06993853998430288 -8.168883856211524 0.009388587151661482 0.04147660420544381 44.54103669527334 0.027103592068743073 0.021222469283226793 44.54714502127954 12.485711624520825 -0.014697876739463852 0.03329670155773604 0.044259344041322264 0.020756640632558044 -0.033631922105770734 0.030096327658807983 -0.019660817367812975 0.00249344001308332 11.06769244619291 0.020695052951911222 0.024243645591176283 0.0020394132902277085 -0.026876742496756124 0.003980890693490274 -0.01507347143015629 -0.03976222158285819 -0.006319800601863662 4.7964620950125285 -0.007374871965095967 -0.017051246636789114 0.0256916225057214 -0.02390374395176841 -0.025516773219185527 -0.04178577592361385 0.005583709470138385 0.025710671767015452 -5.558248099652499 0.0008058745839513741 0.009663312832102344 -6.767257918703521 -0.014693698655568552 0.04464912964688058 -6.676499252327709 -0.048409647164808715 0.023496980260339865 0.03941022218479512 0.0178187820832775 -0.02922470139979486 8.009400095158432 3.513949004052789 -19.217880090145265 -0.004000476707331337 10.347953204824236 0.00569842309292673 -5.589553671748989 -15.651221210020518 3.1775086995546764 0.0133023134700732 -0.0034584787248508335 -0.02169745325083553 -0.037700561059664954 4.707684923323771 0.042522781548088064 12.419057762131345 -8.23542768780253 6.899057525268641 0.04762548128094868 46.35061170306462 0.0013939458635586074 -4.288658872890638 -14.764027308515404 -3.8804397780218514 0.02364549100326158 -0.0003731236000569916 -0.021683066082487483 -0.03579923392007868 -10.767478153046996 -0.023665083961684957 
-0.013279970726422905 -0.016923031939087 0.028880394857178405 -0.03536929063104094 -0.009182669453732596 0.006871299101012875 5.261420170343469 3.305814284193618 -2.285815819764593 -0.7867487306067114 3.475321409801671 0.43892403223179544 -0.5775224232823924 -0.886067841536952 1.3827107720533955 -0.7221162909600595 -0.5236821144286824 -0.22023737403047866 -0.04970197336994577 11.167508042249871 -1.0672080871752094 0.008922219487801246 -1.1419815591833875 -2.731207242330155 0.5037367346826694 -17.944195695812237 -0.21959912947671348 -10.847976310306606 3.8633645523462983 -17.490852656329558 80.91276109162492 -3.597548520764187 13.026725410646723 30.20605852966527 2.768104995872838 94.73705450199881 9.970746649218299 -0.5210153481947943 -4.115587531559334 4.5075518603827405 -0.15687611189847075 -1.5885538340720702 -0.009090408995013706 0.0006130717959340099 -56.2320374214751 -0.025699551800273973 -0.015318953658917068 -56.233680565324875 -38.7542771615045 -0.015215317856874046 0.03369750732736284 -0.02464382486705758 -0.03573912779395072 -0.0035790021433817934 0.003620900571635374 -0.028388529336088316 -0.007756800591244066 -36.74167188629826 0.011052452574102756 0.031203642530222366 0.02269205087304325 0.020703464862820434 0.04312898994999165 -0.04755791803948964 0.03293550223954413 -0.029273710508339105 -19.792804682071612 -0.04989836620748045 0.036574230106071415 -0.04266508154156616 -0.03364201562640182 0.031830618359256005 0.027531262531657216 0.047366816099555176 0.021016548393413523 24.095854407826906 0.030062773651468293 0.0014092467006822762 28.87475987093902 -0.01646592273177455 0.047161940689495606 28.840148440836998 0.012867861032053314 0.013304456339591564 9.432520012842023 2.3328957466324707 14.424287050237481 -77.46745590320991 18.422335842064935 -10.492760207978137 -5.7577576262956285 11.552286193483294 -51.10804097762629 -19.44636220506493 -1.714747545011494 2.8542436791252643 -0.4737908416615731 0.02156474687311661 -8.159121966556537 -0.0012280960757416778 -0.029996232055964026 44.58499310930891 0.025588930755061426 -0.042312347978175645 44.571238648094415 12.503694876324213 0.04290771280589858 0.022010143220759587 -0.00778380680776866 -0.007727318381971082 0.002950021247667757 0.04888402211318131 -0.0036514217169149816 -0.029937700941930295 11.112345055278356 -0.022332283232174704 0.013754834626540294 0.010069189541072537 -0.03422669782786026 -0.021160307113272346 -0.0011030875866351463 0.023165068123101165 -0.04460866018699776 4.740831957918589 0.020990306162141516 -0.03957667435683083 0.0017633691075540163 0.034048155753299614 -0.0383822206399656 -0.006082785437968908 -0.010239670770029847 -0.014287479602570582 -5.579829368996437 0.04707360956601096 0.0051540361502840784 -6.709202340904529 0.013074639716694562 -0.03875419952756135 -6.764022002828661 -0.014284872264907463 0.00851575945548643 -0.00010774026822748248 0.018201438780401005 0.02726480006713571 8.060727191648 3.513391977759813 -19.213399059454574 0.04481169099954987 10.368239705154568 0.0034799100749383378 -5.613707469807457 -15.673390332672476 3.1560979868732306 -0.026980595571766415 0.0006561553086542255 -0.036825035189718136 0.03431314107311698 4.697885334399745 0.01613269189650726 12.507782018386711 -8.286471011214545 6.846837792030409 0.01512757635539467 46.35251464466118 0.029755543778655386 -4.294529739209291 -14.72051608236252 -3.7971579575289454 0.017856258898335753 -0.042470765794119 -0.030309131796975617 -0.03550925637979467 -10.768590348118858 0.00524304577357634 
0.027418284648171882 -0.019551294400400484 0.01534296393925792 -0.0036832555713564915 0.013995957362441282 -0.038524863017707515 5.2609373482221935 3.2151303553664508 -2.2649257353937897 -0.8305613224989465 3.4270620973775134 0.440140225631056 -0.574332762013443 -0.8284451089547115 1.4357012100874782 -0.6960233066310962 -0.5663195724475554 -0.18040257746306884 0.07952997430548064 11.06136028718037 -1.2913592278341302 0.09490033731441737 -1.187378992999521 -3.2894107037463622 0.6064277042897263 -18.010837003896583 -0.30307936776588557 -10.725167408195466 3.8810062436270507 -17.636711582546937 80.60513818509926 -3.1542881789684545 12.630585802086516 29.34786298702033 3.3286251826781474 95.12368283726445 10.557732712305922 -0.5074590610399544 -4.306655563606977 4.529560120110665 -0.15958610849240404 -1.5873034866181452 -0.041638834947952404 -0.015273258400114864 -56.19246200361884 -0.01395280848317328 0.049737839741713794 -56.228476947790256 -38.73692301850739 -0.0056359454362148575 -0.02398817667569046 -0.026257791181748896 0.02464639848285896 -0.03073187004724722 0.0027261850693027652 0.010016535938622062 -0.02651167667662968 -36.696042149360224 0.020811857684528368 -0.028706799718327236 -0.01806107528078182 -0.017074740707463305 -0.023855589446276266 -0.03295267868565954 0.030555983863849837 -0.04217432825612642 -19.748257340097553 0.021033458813909972 0.016369580531919968 -0.014495261513459238 -0.04787100578465639 -0.0030985772260281306 -0.013058546135723713 0.032564542488284796 -0.021334585889416793 24.064364175575587 -0.03258517622093665 0.007436123057827752 28.880633408791194 -0.02498363183368697 -0.0015936551223466769 28.87246059617231 0.03483115065033924 0.016674921175234534 9.147171845632508 2.24706429907024 14.436229060003964 -77.5157309932263 18.373991424923478 -9.567516183099427 -4.934923542159076 11.299513656835828 -49.85956773283617 -19.73293528851524 -1.6046208853923796 2.8240997990675747 -0.48776631604844467 0.018773932348797776 -8.097614548183573 -0.011821348527894673 0.028314114110903253 44.5754147686625 -0.02212159707637983 -0.00830467612106329 44.559067184375856 12.440165280833725 -0.026298890217839085 -0.0434215318662109 -0.030313540167822065 0.0038761747476180734 -0.037975742993998834 -0.03598326920895563 -0.04332717150070812 0.008127920297627602 11.098636822713152 0.04014297621576308 0.004092156272676469 0.002836119740116086 0.035033586572563585 -0.006380173406931375 0.026844007048973474 0.049453289242298554 -0.010635012887161061 4.81572540423424 0.02661517764767972 0.01235177112992089 0.03480095521921051 -0.03701984586347111 -0.014660175727720331 0.007377870061669639 0.016373537801319074 -0.021115299295925642 -5.64575510095673 0.006365592199550736 -0.04733954526156058 -6.719033981646229 -0.042683531158045795 -0.037790109402956525 -6.747388728314878 -0.005457564787479194 0.030547780344974407 0.0419147977291944 -0.026497142279571406 0.04716257748003984 8.021411026980443 3.4550430456867294 -19.23827566888973 0.025443534791264457 10.38578038848019 0.03613995864070994 -5.5960498174456985 -15.667955623579767 3.1500256944252825 -0.035584485858108875 0.014752159257936267 -0.03671168078511121 -0.012727582190038464 4.714121736005267 -0.038058686574871554 12.441053904798139 -8.205836120050385 6.880962840930865 -0.010716330072675945 46.37765099471136 -0.02040774533555996 -4.277747700182544 -14.758953497875082 -3.8390618327854487 -0.011348741075655264 -0.029754290621924587 -0.0255194533132615 -0.015430273464000468 -10.775790691683701 -0.010396857225497906 
